<?xml version="1.0" encoding="UTF-8" standalone="no" ?>
<!DOCTYPE svg PUBLIC "-//W3C//DTD SVG 1.1//EN" "http://www.w3.org/Graphics/SVG/1.1/DTD/svg11.dtd">
<svg xmlns="http://www.w3.org/2000/svg" xmlns:xlink="http://www.w3.org/1999/xlink" version="1.1" width="1024" height="1024" viewBox="0 0 1024 1024" xml:space="preserve">
<desc>Created with Fabric.js 2.3.6</desc>
<defs>
</defs>
	<g id="text-1" transform="translate(604.306825 482.302479) scale(2.575 2.575)">
		<text xml:space="preserve" font-family="Scope One" font-size="41.04754230459307" font-style="normal" font-weight="normal" style="stroke: none; stroke-width: 0; stroke-dasharray: none; stroke-linecap: butt; stroke-linejoin: miter; stroke-miterlimit: 4; fill: rgb(255,255,255); fill-rule: nonzero; opacity: 1; white-space: pre;" ><tspan x="-63.675" y="12.894675" >Drivyx</tspan></text>
	</g>
	<g id="text-2" transform="translate(430.011991 563.033195) scale(2.575 2.575)">
		<text xml:space="preserve" font-family="Mate SC" font-size="23.180646619941214" font-style="normal" font-weight="normal" style="stroke: none; stroke-width: 0; stroke-dasharray: none; stroke-linecap: butt; stroke-linejoin: miter; stroke-miterlimit: 4; fill: rgb(255,255,255); fill-rule: nonzero; opacity: 1; white-space: pre;" ><tspan x="-128.16" y="7.281968" >gear up for global green</tspan></text>
	</g>
<path id="icon-1" d="M 78.3 91.9 H 57.7 l -2.1 -36.3 c 2.9 3.7 6.6 6.9 10.8 9 l 8.4 4.4 c 0.5 0.3 1 0.4 1.6 0.4 c 0.7 0 1.4 -0.2 2 -0.7 c 0.8 -0.6 1.3 -1.6 1.4 -2.6 c 0 -1 -0.4 -2 -1.2 -2.7 l -22 -18.3 c 0.3 -0.6 0.4 -1.3 0.4 -2 s -0.1 -1.3 -0.4 -2 l 1 -1.5 c 4 -5.9 6 -13 5.6 -20.1 l -0.5 -9.4 c -0.1 -1.3 -0.8 -2.4 -2 -2.9 c -0.9 -0.4 -2 -0.4 -2.9 0.1 s -1.5 1.4 -1.7 2.4 L 51.3 38 c -1.4 0.2 -2.6 0.9 -3.4 1.9 l -1.8 -0.1 c -7.1 -0.6 -14.3 1.2 -20.3 5 l -8 5 c -1.1 0.7 -1.7 1.9 -1.5 3.2 c 0.1 1 0.7 1.9 1.5 2.5 c 0.5 0.3 1.2 0.5 1.8 0.5 c 0.4 0 0.8 -0.1 1.1 -0.2 l 27 -9.6 c 0.2 0.3 0.5 0.6 0.9 0.9 l -2.6 45 H 22.2 c -0.7 0 -1.4 0.6 -1.4 1.3 s 0.6 1.3 1.4 1.3 h 25.1 h 9.1 h 21.9 c 0.7 0 1.4 -0.6 1.4 -1.3 S 79.1 91.9 78.3 91.9 z M 77 66.1 c 0 0.1 0 0.3 -0.3 0.5 c -0.2 0.1 -0.5 0.2 -0.7 0.1 l -8.4 -4.4 c -5.8 -3 -10.5 -7.9 -13.3 -13.8 L 54 47.7 c 0.3 -0.1 0.6 -0.3 0.9 -0.5 l 21.9 18.4 C 77 65.7 77 66 77 66.1 z M 58.7 10.2 c 0 -0.3 0.2 -0.4 0.3 -0.5 s 0.3 -0.1 0.6 0 C 59.9 9.8 60 10 60 10.2 l 0.5 9.4 c 0.3 6.5 -1.5 13.1 -5.2 18.4 l -0.5 0.8 c -0.3 -0.2 -0.6 -0.4 -0.9 -0.5 L 58.7 10.2 z M 51.9 40.6 c 1.3 0 2.4 1.1 2.4 2.4 s -1.1 2.4 -2.4 2.4 s -2.4 -1.1 -2.4 -2.4 S 50.5 40.6 51.9 40.6 z M 19.8 53.1 c -0.3 0.1 -0.5 0 -0.6 -0.1 S 19 52.9 19 52.6 c 0 -0.2 0.1 -0.5 0.3 -0.6 l 8 -5 c 5.5 -3.5 12.1 -5.1 18.6 -4.6 l 0.9 0.1 c 0 0.2 -0.1 0.4 -0.1 0.6 c 0 0.2 0 0.3 0.1 0.5 L 19.8 53.1 z M 48.7 91.9 l 2.5 -43.7 l 0.7 1.4 c 0.2 0.5 0.5 0.9 0.8 1.4 L 55 91.9 H 48.7 z" style="stroke: none; stroke-width: 1; stroke-dasharray: none; stroke-linecap: butt; stroke-linejoin: miter; stroke-miterlimit: 4; fill: rgb(255,255,255); fill-rule: nonzero; opacity: 1;" transform="translate(868.098148 524.50938) scale(1.732367 1.732367) translate(-48.030946220665484, -50.80572809000084) " stroke-linecap="round" />
</svg>